<?xml version="1.0" standalone="no"?>
<!DOCTYPE svg PUBLIC "-//W3C//DTD SVG 20010904//EN"
 "http://www.w3.org/TR/2001/REC-SVG-20010904/DTD/svg10.dtd">
<svg version="1.0" xmlns="http://www.w3.org/2000/svg"
 width="1080.000000pt" height="1080.000000pt" viewBox="0 0 1080.000000 1080.000000"
 preserveAspectRatio="xMidYMid meet">
<metadata>
Created by potrace 1.14, written by Peter Selinger 2001-2017
</metadata>
<g transform="translate(0.000000,1080.000000) scale(0.100000,-0.100000)"
fill="#000000" stroke="none">
<path d="M5323 10790 c-306 -32 -636 -158 -928 -353 -554 -370 -987 -1017
-1181 -1766 -32 -120 -74 -332 -74 -368 0 -16 -6 -39 -13 -53 l-13 -25 -239
-6 c-161 -4 -266 -12 -320 -23 -401 -82 -724 -346 -870 -711 -56 -138 -85
-267 -85 -371 0 -58 -5 -73 -74 -206 -135 -262 -192 -449 -216 -708 -8 -91
-10 -956 -8 -3153 3 -2678 5 -3029 18 -3037 19 -12 7869 -13 7888 -2 9 6 13
48 14 150 l1 142 81 1 c119 2 174 6 191 13 14 5 15 365 12 3468 -3 3086 -5
3470 -18 3523 -104 402 -380 705 -771 849 -118 44 -226 58 -475 63 -162 4
-246 9 -251 17 -5 6 -19 67 -31 136 -31 179 -79 373 -132 532 -23 70 -102 272
-122 313 -8 17 -34 71 -58 120 -142 296 -313 540 -537 769 -348 354 -722 567
-1157 657 -121 25 -168 30 -345 34 -113 2 -242 0 -287 -5z m447 -270 c104 -11
244 -44 355 -83 656 -229 1197 -842 1459 -1652 53 -165 126 -478 126 -541 l0
-24 -2155 0 -2156 0 5 33 c3 17 8 55 11 82 8 58 47 225 80 340 113 393 266
703 499 1015 39 52 138 163 221 246 195 196 356 315 555 411 128 61 157 73
257 103 250 78 473 98 743 70z"/>
</g>
</svg>
